<?xml version="1.0" encoding="UTF-8" standalone="no"?>
<!-- Created with Inkscape (http://www.inkscape.org/) -->

<svg
   xmlns:dc="http://purl.org/dc/elements/1.1/"
   xmlns:cc="http://creativecommons.org/ns#"
   xmlns:rdf="http://www.w3.org/1999/02/22-rdf-syntax-ns#"
   xmlns:svg="http://www.w3.org/2000/svg"
   xmlns="http://www.w3.org/2000/svg"
   xmlns:sodipodi="http://sodipodi.sourceforge.net/DTD/sodipodi-0.dtd"
   xmlns:inkscape="http://www.inkscape.org/namespaces/inkscape"
   version="1.1"
   id="svg4518"
   width="514.66669"
   height="514.66669"
   viewBox="0 0 514.66669 514.66669"
   sodipodi:docname="logo.svg"
   inkscape:version="0.92.3 (2405546, 2018-03-11)"
   inkscape:export-filename="C:\Users\Joe\OneDrive\Documents\Programming\Scratch Projects-jclinton\ChromeEngine\logo2.png"
   inkscape:export-xdpi="95.658295"
   inkscape:export-ydpi="95.658295">
  <metadata
     id="metadata4524">
    <rdf:RDF>
      <cc:Work
         rdf:about="">
        <dc:format>image/svg+xml</dc:format>
        <dc:type
           rdf:resource="http://purl.org/dc/dcmitype/StillImage" />
        <dc:title></dc:title>
      </cc:Work>
    </rdf:RDF>
  </metadata>
  <defs
     id="defs4522" />
  <sodipodi:namedview
     pagecolor="#ffffff"
     bordercolor="#666666"
     borderopacity="1"
     objecttolerance="10"
     gridtolerance="10"
     guidetolerance="10"
     inkscape:pageopacity="0"
     inkscape:pageshadow="2"
     inkscape:window-width="1920"
     inkscape:window-height="1009"
     id="namedview4520"
     showgrid="false"
     inkscape:zoom="0.55643439"
     inkscape:cx="151.46699"
     inkscape:cy="288.75473"
     inkscape:window-x="-8"
     inkscape:window-y="-8"
     inkscape:window-maximized="1"
     inkscape:current-layer="svg4518" />
  <path
     style="fill:#28d5f4;fill-opacity:1;stroke:#000000;stroke-width:32.01197433;stroke-miterlimit:4;stroke-dasharray:none;stroke-opacity:1;paint-order:markers stroke fill"
     d="m 212.1599,497.83386 c -25.8427,-4.6705 -58.24237,-16.11849 -74.4855,-26.31846 -3.5644,-2.23829 -6.87833,-4.06962 -7.36428,-4.06962 -3.7692,0 -32.786522,-23.71794 -46.510439,-38.01632 -16.87823,-17.58469 -16.87823,-17.58469 -23.980383,-14.74298 -14.268368,5.70906 -22.666978,-7.45138 -9.654745,-15.12876 5.910036,-3.487 5.910036,-3.487 -1.845107,-18.56008 -5.876842,-11.42238 -8.997897,-15.59562 -12.886281,-17.23056 -6.559001,-2.75785 -8.105306,-6.89153 -4.759017,-12.72212 2.414319,-4.20671 2.347173,-5.70198 -0.747548,-16.64705 -8.111795,-28.68886 -5.683142,-87.55435 4.761155,-115.40062 5.585295,-14.89136 10.046788,-25.31959 11.484145,-26.84287 0.864404,-0.91608 1.648894,-36.47876 1.762975,-79.92051 0.113105,-43.048472 0.706216,-80.615446 1.318103,-83.48216 1.380771,-6.468787 11.229066,-12.393628 17.841948,-10.733902 3.852328,0.966873 28.939075,19.1927 33.625164,24.429091 1.55541,1.738049 18.47742,15.560299 45.7708,37.386515 9.56205,7.64666 9.56205,7.64666 17.51236,4.642548 32.90241,-12.432476 52.02363,-15.764014 90.47692,-15.764014 37.91543,0 65.58541,4.844498 90.72511,15.884302 6.46112,2.837316 6.46112,2.837316 19.11143,-7.302157 6.95768,-5.576722 13.04123,-10.62963 13.51901,-11.228695 0.4778,-0.599078 7.12336,-6.019147 14.76792,-12.044613 7.64458,-6.025467 14.29013,-11.48146 14.76793,-12.124425 1.67611,-2.255635 25.23548,-20.4173 29.28442,-22.575071 5.76712,-3.073429 15.0217,-0.906019 19.28755,4.517117 3.45544,4.392905 3.55009,6.592573 3.55009,82.519754 0,78.00655 0,78.00655 4.28407,86.46079 14.36577,28.34941 20.44728,55.64159 20.34919,91.32123 -0.0734,26.70245 -1.00018,34.80165 -6.16421,53.86911 -2.1722,8.02057 -2.10453,8.86116 0.88223,10.95727 4.93592,3.46402 4.22474,11.48891 -1.23876,13.97825 -2.46053,1.12109 -5.15499,1.61728 -5.98769,1.10264 -0.83274,-0.51464 -4.3283,4.67191 -7.76795,11.52565 -3.43965,6.85375 -7.37338,14.05961 -8.7416,16.013 -2.31221,3.30114 -2.03083,3.80706 3.98897,7.1723 7.95213,4.44547 10.03912,13.26396 3.91478,16.5416 -3.56588,1.90841 -13.3106,-0.10998 -18.48278,-3.82826 -1.2171,-0.875 -5.65712,3.08073 -11.9863,10.67887 -32.45659,38.96401 -84.84512,67.56529 -140.04088,76.45473 -15.13103,2.4369 -65.25333,1.95557 -80.3428,-0.77152 z"
     id="path4542"
     inkscape:connector-curvature="0" />
  <path
     style="fill:#000000;fill-opacity:1;stroke-width:1.73740208"
     d="m 268.3794,356.70952 c 17.5538,-21.94252 16.07017,-24.7811 -12.95232,-24.7811 -27.60794,0 -29.2512,2.67703 -13.70454,22.32598 12.61099,15.93868 15.64647,16.21827 26.65686,2.45512 z"
     id="path4540"
     inkscape:connector-curvature="0" />
  <path
     style="fill:#000000;fill-opacity:1;stroke-width:1.73740208"
     d="m 182.82821,305.87677 c 10.2478,-6.24816 12.81477,-12.63295 12.22779,-30.41393 -0.71621,-21.69552 -7.71005,-30.40453 -24.41661,-30.40453 -16.27561,0 -25.61014,11.71531 -25.61014,32.14195 0,25.69581 19.02049,40.12587 37.79896,28.67651 z"
     id="path4538"
     inkscape:connector-curvature="0" />
  <path
     style="fill:#000000;fill-opacity:1;stroke-width:1.73740208"
     d="m 355.42691,305.3984 c 15.97428,-10.6715 16.80842,-42.89927 1.44496,-55.82677 -11.1984,-9.42284 -29.97997,-4.53516 -37.40418,9.73398 -3.86731,7.43278 -3.23735,30.4665 1.02439,37.45629 7.50762,12.3135 23.50914,16.26935 34.93483,8.6365 z"
     id="path4534"
     inkscape:connector-curvature="0" />
</svg>
